HIERARCHY
ROOT Hips
{
	OFFSET 0.000000 0.000000 0.000000
	CHANNELS 6 Xposition Yposition Zposition Zrotation Yrotation Xrotation
	JOINT LeftUpLeg
	{
		OFFSET 0.103459 1.857827 10.548521
		CHANNELS 6 Xposition Yposition Zposition Zrotation Yrotation Xrotation
		JOINT LeftLeg
		{
			OFFSET 43.499979 0.000107 0.000090
			CHANNELS 6 Xposition Yposition Zposition Zrotation Yrotation Xrotation
			JOINT LeftFoot
			{
				OFFSET 42.372168 0.000034 0.000010
				CHANNELS 6 Xposition Yposition Zposition Zrotation Yrotation Xrotation
				JOINT LeftToe
				{
					OFFSET 17.299924 -0.000089 0.000018
					CHANNELS 6 Xposition Yposition Zposition Zrotation Yrotation Xrotation
					End Site
					{
						OFFSET 6.000000 0.000000 0.000000
					}
				}
			}
		}
	}
	JOINT RightUpLeg
	{
		OFFSET 0.103456 1.857863 -10.548456
		CHANNELS 6 Xposition Yposition Zposition Zrotation Yrotation Xrotation
		JOINT RightLeg
		{
			OFFSET 43.500042 -0.000002 0.000029
			CHANNELS 6 Xposition Yposition Zposition Zrotation Yrotation Xrotation
			JOINT RightFoot
			{
				OFFSET 42.372205 0.000033 0.000070
				CHANNELS 6 Xposition Yposition Zposition Zrotation Yrotation Xrotation
				JOINT RightToe
				{
					OFFSET 17.299951 -0.000065 0.000070
					CHANNELS 6 Xposition Yposition Zposition Zrotation Yrotation Xrotation
					End Site
					{
						OFFSET 6.000000 0.000000 0.000000
					}
				}
			}
		}
	}
	JOINT Spine
	{
		OFFSET 6.901935 -2.603664 0.000033
		CHANNELS 6 Xposition Yposition Zposition Zrotation Yrotation Xrotation
		JOINT Spine1
		{
			OFFSET 12.588142 0.000010 -0.000051
			CHANNELS 6 Xposition Yposition Zposition Zrotation Yrotation Xrotation
			JOINT Spine2
			{
				OFFSET 12.343166 -0.000098 0.000026
				CHANNELS 6 Xposition Yposition Zposition Zrotation Yrotation Xrotation
				JOINT Neck
				{
					OFFSET 25.832894 0.000061 0.000061
					CHANNELS 6 Xposition Yposition Zposition Zrotation Yrotation Xrotation
					JOINT Head
					{
						OFFSET 11.766657 -0.000023 -0.000040
						CHANNELS 6 Xposition Yposition Zposition Zrotation Yrotation Xrotation
						End Site
						{
							OFFSET 12.000000 0.000000 0.000000
						}
					}
				}
				JOINT LeftShoulder
				{
					OFFSET 19.745926 -1.480308 6.000100
					CHANNELS 6 Xposition Yposition Zposition Zrotation Yrotation Xrotation
					JOINT LeftArm
					{
						OFFSET 11.284141 -0.000067 -0.000035
						CHANNELS 6 Xposition Yposition Zposition Zrotation Yrotation Xrotation
						JOINT LeftForeArm
						{
							OFFSET 33.000033 0.000026 -0.000005
							CHANNELS 6 Xposition Yposition Zposition Zrotation Yrotation Xrotation
							JOINT LeftHand
							{
								OFFSET 25.200056 0.000059 -0.000020
								CHANNELS 6 Xposition Yposition Zposition Zrotation Yrotation Xrotation
								End Site
								{
									OFFSET 9.000000 0.000000 0.000000
								}
							}
						}
					}
				}
				JOINT RightShoulder
				{
					OFFSET 19.746108 -1.480276 -5.999995
					CHANNELS 6 Xposition Yposition Zposition Zrotation Yrotation Xrotation
					JOINT RightArm
					{
						OFFSET 11.284248 -0.000015 -0.000063
						CHANNELS 6 Xposition Yposition Zposition Zrotation Yrotation Xrotation
						JOINT RightForeArm
						{
							OFFSET 33.000071 0.000058 0.000097
							CHANNELS 6 Xposition Yposition Zposition Zrotation Yrotation Xrotation
							JOINT RightHand
							{
								OFFSET 25.199705 0.000114 0.000349
								CHANNELS 6 Xposition Yposition Zposition Zrotation Yrotation Xrotation
								End Site
								{
									OFFSET 9.000000 0.000000 0.000000
								}
							}
						}
					}
				}
			}
		}
	}
}
MOTION
Frames: 5
Frame Time: 0.0333333
0.0000 163.3873 -7.5062 -89.6197 -3.3792 -87.7956 0.1035 1.8578 10.5485 58.4380 -1.5220 169.9304 43.5000 0.0001 0.0001 -144.0469 10.2206 -12.8691 42.3722 0.0000 0.0000 86.0268 -2.2065 -3.7273 17.2999 -0.0001 0.0000 21.4546 0.0031 -0.0001 0.1035 1.8579 -10.5485 60.3818 4.6988 -179.7966 43.5000 -0.0000 0.0000 -141.7186 -0.6841 7.0025 42.3722 0.0000 0.0001 87.6440 -3.2703 4.2240 17.3000 -0.0001 0.0001 21.4546 -0.0031 0.0000 6.9019 -2.6037 0.0000 5.4772 0.2412 0.3966 12.5881 0.0000 -0.0001 0.9434 0.4744 0.7952 12.3432 -0.0001 0.0000 0.6253 0.4793 0.7923 25.8329 0.0001 0.0001 0.9662 6.3279 -2.4273 11.7667 -0.0000 -0.0000 14.9072 -14.1441 -0.3639 19.7459 -1.4803 6.0001 -64.7437 -84.2445 -117.5602 11.2841 -0.0001 -0.0000 63.0940 -21.2777 89.8515 33.0000 0.0000 -0.0000 -116.1709 -26.1084 -27.6675 25.2001 0.0001 -0.0000 12.8595 1.5532 18.3587 19.7461 -1.4803 -6.0000 -82.6696 80.1309 99.9540 11.2842 -0.0000 -0.0001 74.7929 27.6595 -82.6060 33.0001 0.0001 0.0001 -124.7247 21.1119 25.6125 25.1997 0.0001 0.0003 12.2982 10.3537 -7.4738
0.0000 163.2874 -8.7000 -89.5593 -30.5279 -87.9971 0.1035 1.8578 10.5485 59.0120 -1.5136 169.9515 43.5000 0.0001 0.0001 -143.4155 10.2778 -12.7768 42.3722 0.0000 0.0000 85.9777 -2.2076 -3.7207 17.2999 -0.0001 0.0000 21.4546 0.0031 -0.0001 0.1035 1.8579 -10.5485 60.9581 4.7064 -179.7752 43.5000 -0.0000 0.0000 -141.0947 -0.6749 6.9739 42.3722 0.0000 0.0001 87.5956 -3.2722 4.2174 17.3000 -0.0001 0.0001 21.4546 -0.0031 0.0000 6.9019 -2.6037 0.0000 5.4772 0.2412 0.3966 12.5881 0.0000 -0.0001 0.9434 0.4744 0.7952 12.3432 -0.0001 0.0000 0.6253 0.4793 0.7923 25.8329 0.0001 0.0001 0.9662 6.3279 -2.4273 11.7667 -0.0000 -0.0000 14.9072 -14.1441 -0.3639 19.7459 -1.4803 6.0001 -64.7437 -84.2445 -117.5602 11.2841 -0.0001 -0.0000 63.1141 -21.1689 89.8143 33.0000 0.0000 -0.0000 -116.1637 -26.1061 -27.6672 25.2001 0.0001 -0.0000 12.8595 1.5532 18.3587 19.7461 -1.4803 -6.0000 -82.6696 80.1309 99.9540 11.2842 -0.0000 -0.0001 74.8048 27.5467 -82.5844 33.0001 0.0001 0.0001 -124.7176 21.1101 25.6116 25.1997 0.0001 0.0003 12.2982 10.3537 -7.4738
0.0000 157.9544 -9.8987 -89.3017 -57.0639 -88.3592 0.1035 1.8578 10.5485 68.3043 -1.4085 170.3027 43.5000 0.0001 0.0001 -133.2359 11.0555 -11.2105 42.3722 0.0000 0.0000 85.2506 -2.2236 -3.6231 17.2999 -0.0001 0.0000 21.4546 0.0031 -0.0001 0.1035 1.8579 -10.5485 70.2888 4.7994 -179.4195 43.5000 -0.0000 0.0000 -131.0632 -0.4851 6.5313 42.3722 0.0000 0.0001 86.8784 -3.3017 4.1191 17.3000 -0.0001 0.0001 21.4546 -0.0031 0.0000 6.9019 -2.6037 0.0000 5.4772 0.2412 0.3966 12.5881 0.0000 -0.0001 0.9434 0.4744 0.7952 12.3432 -0.0001 0.0000 0.6253 0.4793 0.7923 25.8329 0.0001 0.0001 0.9662 6.3279 -2.4273 11.7667 -0.0000 -0.0000 14.9072 -14.1441 -0.3639 19.7459 -1.4803 6.0001 -64.7437 -84.2445 -117.5602 11.2841 -0.0001 -0.0000 63.7097 -17.6902 88.6628 33.0000 0.0000 -0.0000 -113.9076 -25.3624 -27.5585 25.2001 0.0001 -0.0000 12.8595 1.5532 18.3587 19.7461 -1.4803 -6.0000 -82.6696 80.1309 99.9540 11.2842 -0.0000 -0.0001 75.1564 23.9461 -81.9207 33.0001 0.0001 0.0001 -122.4750 20.5343 25.3397 25.1997 0.0001 0.0003 12.2982 10.3537 -7.4738
0.0000 148.7454 -11.0831 -87.1189 -82.4245 -90.6285 0.1035 1.8578 10.5485 84.1136 -1.3639 170.9235 43.5000 0.0001 0.0001 -115.8339 11.7147 -8.3014 42.3722 0.0000 0.0000 84.0135 -2.2480 -3.4567 17.2999 -0.0001 0.0000 21.4546 0.0031 -0.0001 0.1035 1.8579 -10.5485 86.1654 4.8222 -178.7955 43.5000 -0.0000 0.0000 -114.0014 0.0039 5.8765 42.3722 0.0000 0.0001 85.6583 -3.3547 3.9527 17.3000 -0.0001 0.0001 21.4546 -0.0031 0.0000 6.9019 -2.6037 0.0000 5.4772 0.2412 0.3966 12.5881 0.0000 -0.0001 0.9434 0.4744 0.7952 12.3432 -0.0001 0.0000 0.6253 0.4793 0.7923 25.8329 0.0001 0.0001 0.9662 6.3279 -2.4273 11.7667 -0.0000 -0.0000 14.9072 -14.1441 -0.3639 19.7459 -1.4803 6.0001 -64.7437 -84.2445 -117.5602 11.2841 -0.0001 -0.0000 64.5378 -11.7490 86.8294 33.0000 0.0000 -0.0000 -109.7743 -24.0023 -27.2757 25.2001 0.0001 -0.0000 12.8595 1.5532 18.3587 19.7461 -1.4803 -6.0000 -82.6696 80.1309 99.9540 11.2842 -0.0000 -0.0001 75.6353 17.8132 -80.8799 33.0001 0.0001 0.0001 -118.3497 19.4996 24.7785 25.1997 0.0001 0.0003 12.2982 10.3537 -7.4738
0.0000 137.1802 -12.2343 88.6294 -73.9179 93.5434 0.1035 1.8578 10.5485 103.5430 -1.5422 171.6660 43.5000 0.0001 0.0001 -94.4231 11.3148 -4.6597 42.3722 0.0000 0.0000 82.4929 -2.2730 -3.2514 17.2999 -0.0001 0.0000 21.4546 0.0031 -0.0001 0.1035 1.8579 -10.5485 105.6744 4.6169 -178.0576 43.5000 -0.0000 0.0000 -93.0395 0.8328 5.3125 42.3722 0.0000 0.0001 84.1589 -3.4246 3.7498 17.3000 -0.0001 0.0001 21.4546 -0.0031 0.0000 6.9019 -2.6037 0.0000 5.4772 0.2412 0.3966 12.5881 0.0000 -0.0001 0.9434 0.4744 0.7952 12.3432 -0.0001 0.0000 0.6253 0.4793 0.7923 25.8329 0.0001 0.0001 0.9662 6.3279 -2.4273 11.7667 -0.0000 -0.0000 14.9072 -14.1441 -0.3639 19.7459 -1.4803 6.0001 -64.7437 -84.2445 -117.5602 11.2841 -0.0001 -0.0000 65.2783 -4.4180 84.7297 33.0000 0.0000 -0.0000 -104.1630 -22.1748 -26.7222 25.2001 0.0001 -0.0000 12.8595 1.5532 18.3587 19.7461 -1.4803 -6.0000 -82.6696 80.1309 99.9540 11.2842 -0.0000 -0.0001 76.0520 10.2666 -79.7091 33.0001 0.0001 0.0001 -112.7173 18.1479 23.8902 25.1997 0.0001 0.0003 12.2982 10.3537 -7.4738
